<?xml version="1.0" encoding="UTF-8"?>
<svg width="182px" height="30px" viewBox="0 0 182 30" version="1.1" xmlns="http://www.w3.org/2000/svg" xmlns:xlink="http://www.w3.org/1999/xlink">
    <!-- Generator: Sketch 49.3 (51167) - http://www.bohemiancoding.com/sketch -->
    <title>logo</title>
    <desc>Created with Sketch.</desc>
    <defs></defs>
    <g id="Page-1" stroke="none" stroke-width="1" fill="none" fill-rule="evenodd">
        <g id="Artboard" transform="translate(-30.000000, -23.000000)">
            <g id="logo" transform="translate(30.000000, 23.000000)">
                <path d="M49.2933379,7.21028037 L50.1025987,17.3938585 L50.162544,17.4038718 L55.068063,7.21028037 L59.4640475,7.21028037 L56.5567032,21.7897196 L53.2097605,21.7897196 L53.9291034,18.1748999 L55.4776889,11.9265688 L55.4177436,11.9065421 L50.3823432,21.7897196 L48.1343966,21.7897196 L47.0653731,11.9966622 L47.0054278,11.9966622 L46.0662857,18.1748999 L45.3469428,21.7897196 L42,21.7897196 L44.9073443,7.21028037 L49.2933379,7.21028037 Z M71.15337,15.811749 C70.7670543,17.7409976 69.9794483,19.2546674 68.7905283,20.3528037 C67.6016084,21.4509401 66.1446205,22 64.419521,22 C62.7943307,22 61.4921998,21.4042116 60.5130893,20.2126168 C59.5339788,19.0210221 59.2176043,17.5540808 59.5639563,15.811749 L60.0934726,13.188251 C60.4797883,11.2523268 61.2524082,9.73698812 62.4113553,8.64218959 C63.5703025,7.54739105 65.0123042,7 66.7374037,7 C68.362594,7 69.6780459,7.59912618 70.6837989,8.79739653 C71.6895519,9.99566687 72.0225777,11.4592704 71.6828863,13.188251 L71.15337,15.811749 Z M68.3559253,13.1682243 C68.569065,12.1001282 68.4708224,11.2389886 68.0611945,10.5847797 C67.6515666,9.93057083 67.0371341,9.6034713 66.2178783,9.6034713 C65.4918712,9.6034713 64.8974201,9.92723308 64.4345073,10.5747664 C63.9715945,11.2222996 63.6335733,12.086777 63.4204336,13.1682243 L62.8909173,15.811749 C62.671117,16.9065475 62.749378,17.7777004 63.1257028,18.4252336 C63.5020276,19.0727669 64.1064695,19.3965287 64.9390464,19.3965287 C65.6517323,19.3965287 66.2578393,19.0660914 66.7573855,18.4052069 C67.2569317,17.7443225 67.6132693,16.8798451 67.826409,15.811749 L68.3559253,13.1682243 Z M77.3077483,17.8344459 L77.3177392,18.2850467 L77.3776844,18.2950601 L77.5275475,17.8744993 L81.7736689,7.21028037 L85.2704748,7.21028037 L78.6065619,21.7897196 L74.9998564,21.7897196 L73.0216634,7.21028037 L76.4984875,7.21028037 L77.3077483,17.8344459 Z M87.3785492,21.7897196 L84.0515882,21.7897196 L86.9589325,7.21028037 L90.2858935,7.21028037 L87.3785492,21.7897196 Z M99.4774975,15.5514019 L94.2722522,15.5514019 L93.5529092,19.1862483 L99.6972967,19.1862483 L99.1777712,21.7897196 L89.686441,21.7897196 L92.5937853,7.21028037 L102.105097,7.21028037 L101.585572,9.81375167 L95.4212027,9.81375167 L94.7917776,12.9479306 L99.9970229,12.9479306 L99.4774975,15.5514019 Z M110.427495,15.9218959 L105.122341,15.9218959 L103.953409,21.7897196 L100.606466,21.7897196 L103.513811,7.21028037 L113.11504,7.21028037 L112.595515,9.81375167 L106.341228,9.81375167 L105.641867,13.3184246 L110.947021,13.3184246 L110.427495,15.9218959 Z M115.17316,21.7897196 L111.846199,21.7897196 L114.753544,7.21028037 L118.080505,7.21028037 L115.17316,21.7897196 Z M128.89063,21.7897196 L125.553678,21.7897196 L122.676307,12.8377837 L122.616361,12.8477971 L120.827995,21.7897196 L117.481052,21.7897196 L120.388396,7.21028037 L123.735339,7.21028037 L126.612711,16.1622163 L126.672656,16.1522029 L128.461023,7.21028037 L131.797974,7.21028037 L128.89063,21.7897196 Z M138.511842,7.21028037 C140.023802,7.21028037 141.280974,7.79772443 142.283397,8.97263017 C143.285819,10.1475359 143.61718,11.5861063 143.277489,13.2883845 L142.747972,15.9118825 C142.374978,17.8010775 141.617344,19.2529989 140.475048,20.2676903 C139.332753,21.2823816 137.955691,21.7897196 136.343822,21.7897196 L130.998705,21.7897196 L133.906049,7.21028037 L138.511842,7.21028037 Z M136.733466,9.81375167 L134.865173,19.1862483 L136.633557,19.1862483 C137.352904,19.1862483 137.94236,18.8992018 138.401942,18.3251001 C138.861525,17.7509985 139.19455,16.9466006 139.401029,15.9118825 L139.930546,13.2683578 C140.137025,12.2136129 140.035452,11.3741687 139.625824,10.75 C139.216196,10.1258313 138.595103,9.81375167 137.762526,9.81375167 L136.733466,9.81375167 Z M153.318317,15.5514019 L148.113072,15.5514019 L147.393729,19.1862483 L153.538116,19.1862483 L153.018591,21.7897196 L143.52726,21.7897196 L146.434605,7.21028037 L155.945917,7.21028037 L155.426391,9.81375167 L149.262022,9.81375167 L148.632597,12.9479306 L153.837842,12.9479306 L153.318317,15.5514019 Z M158.913206,16.2022697 L157.804219,21.7897196 L154.447286,21.7897196 L157.35463,7.21028037 L162.629811,7.21028037 C164.108468,7.21028037 165.255742,7.60747266 166.071667,8.40186916 C166.887593,9.19626565 167.165669,10.2576703 166.905905,11.5861148 C166.73939,12.4005381 166.42135,13.0697571 165.951777,13.5937917 C165.482203,14.1178264 164.844459,14.5433896 164.038524,14.870494 C164.784513,15.137518 165.292378,15.5714256 165.562133,16.1722296 C165.831888,16.7730337 165.883507,17.49065 165.716991,18.3251001 L165.537156,19.2463284 C165.457228,19.6401889 165.42226,20.0774342 165.432251,20.5580774 C165.442242,21.0387207 165.557136,21.382509 165.776937,21.5894526 L165.736973,21.7897196 L162.300112,21.7897196 C162.093633,21.582776 162.003716,21.2239678 162.030359,20.7132844 C162.057001,20.2026009 162.116946,19.706945 162.210195,19.2263017 L162.39003,18.3451268 C162.536564,17.6041351 162.48994,17.0617507 162.250158,16.7179573 C162.010376,16.3741638 161.574112,16.2022697 160.941354,16.2022697 L158.913206,16.2022697 Z M159.432732,13.5987984 L161.390943,13.5987984 C161.917132,13.5987984 162.378372,13.4402553 162.774679,13.1231642 C163.170986,12.8060732 163.42575,12.3638213 163.538981,11.7963952 C163.658872,11.1622131 163.597262,10.6732327 163.35415,10.3294393 C163.111037,9.98564581 162.69642,9.81375167 162.110286,9.81375167 L160.192038,9.81375167 L159.432732,13.5987984 Z" id="MOVIEFINDER" fill="#FFFFFF"></path>
                <g id="noun_960189_cc" fill="#2586FA" fill-rule="nonzero">
                    <g id="Group">
                        <path d="M15.2263736,29.8953488 L181.789011,29.8953488 L181.789011,27.8023256 L22.8923077,27.8023256 C27.2879121,25.1860465 30.2417582,20.4418605 30.2417582,15 C30.2417582,6.80232558 23.4901099,0.104651163 15.2263736,0.104651163 C6.96263736,0.104651163 0.210989011,6.80232558 0.210989011,15 C0.210989011,23.1976744 6.96263736,29.8953488 15.2263736,29.8953488 Z M15.2263736,2.19767442 C22.3296703,2.19767442 28.1318681,7.95348837 28.1318681,15 C28.1318681,22.0465116 22.3648352,27.8023256 15.2263736,27.8023256 C8.08791209,27.8023256 2.32087912,22.0465116 2.32087912,15 C2.32087912,7.95348837 8.12307692,2.19767442 15.2263736,2.19767442 Z" id="Shape"></path>
                        <path d="M10.1978022,13.744186 C11.1472527,13.744186 12.1318681,13.3953488 12.8703297,12.6627907 C13.5736264,11.9651163 13.9604396,11.0232558 13.9604396,10.0116279 C13.9604396,9 13.5736264,8.09302326 12.8703297,7.36046512 C12.8703297,7.36046512 12.8703297,7.36046512 12.8703297,7.36046512 C11.3934066,5.89534884 9.03736264,5.89534884 7.56043956,7.36046512 C6.85714286,8.05813953 6.47032967,9 6.47032967,10.0116279 C6.47032967,11.0232558 6.85714286,11.9302326 7.56043956,12.6627907 C8.26373626,13.3604651 9.21318681,13.744186 10.1978022,13.744186 Z M9.03736264,8.86046512 C9.35384615,8.54651163 9.77582418,8.37209302 10.1978022,8.37209302 C10.6197802,8.37209302 11.0417582,8.54651163 11.3582418,8.86046512 C11.6747253,9.1744186 11.8505495,9.59302326 11.8505495,10.0116279 C11.8505495,10.4302326 11.6747253,10.8488372 11.3582418,11.1627907 C10.7252747,11.7906977 9.67032967,11.7906977 9.03736264,11.1627907 C8.72087912,10.8488372 8.54505495,10.4302326 8.54505495,10.0116279 C8.54505495,9.55813953 8.72087912,9.1744186 9.03736264,8.86046512 Z" id="Shape"></path>
                        <path d="M17.6175824,17.372093 C16.1406593,18.8372093 16.1406593,21.1744186 17.6175824,22.6395349 C18.356044,23.372093 19.3054945,23.7209302 20.2901099,23.7209302 C21.2395604,23.7209302 22.2241758,23.372093 22.9626374,22.6395349 C24.4395604,21.1744186 24.4395604,18.8372093 22.9626374,17.372093 C21.4505495,15.9069767 19.0593407,15.9069767 17.6175824,17.372093 Z M21.4153846,21.1395349 C20.7824176,21.7674419 19.7274725,21.7674419 19.0945055,21.1395349 C18.4615385,20.5116279 18.4615385,19.4651163 19.0945055,18.8372093 C19.410989,18.5232558 19.832967,18.3488372 20.2549451,18.3488372 C20.6769231,18.3488372 21.0989011,18.5232558 21.4153846,18.8372093 C22.0483516,19.4651163 22.0483516,20.5116279 21.4153846,21.1395349 Z" id="Shape"></path>
                        <path d="M20.2549451,13.744186 C21.2043956,13.744186 22.189011,13.3953488 22.9274725,12.6627907 C23.6307692,11.9651163 24.0175824,11.0232558 24.0175824,10.0116279 C24.0175824,9 23.6307692,8.09302326 22.9274725,7.36046512 C21.4505495,5.93023256 19.0593407,5.93023256 17.6175824,7.36046512 C16.9142857,8.05813953 16.5274725,9 16.5274725,10.0116279 C16.5274725,11.0232558 16.9142857,11.9302326 17.6175824,12.6627907 C18.3208791,13.3604651 19.3054945,13.744186 20.2549451,13.744186 Z M19.0945055,8.86046512 C19.410989,8.54651163 19.832967,8.37209302 20.2549451,8.37209302 C20.6769231,8.37209302 21.0989011,8.54651163 21.4153846,8.86046512 C21.7318681,9.1744186 21.9076923,9.59302326 21.9076923,10.0116279 C21.9076923,10.4302326 21.7318681,10.8488372 21.4153846,11.1627907 C21.4153846,11.1627907 21.4153846,11.1627907 21.4153846,11.1627907 C20.7824176,11.7906977 19.7274725,11.7906977 19.0945055,11.1627907 C18.778022,10.8488372 18.6021978,10.4302326 18.6021978,10.0116279 C18.6021978,9.55813953 18.778022,9.1744186 19.0945055,8.86046512 Z" id="Shape"></path>
                        <path d="M7.52527473,17.372093 C6.04835165,18.8372093 6.04835165,21.1744186 7.52527473,22.6395349 C8.26373626,23.372093 9.21318681,23.7209302 10.1978022,23.7209302 C11.1472527,23.7209302 12.1318681,23.372093 12.8703297,22.6395349 C14.3472527,21.1744186 14.3472527,18.8372093 12.8703297,17.372093 C11.3934066,15.9069767 9.0021978,15.9069767 7.52527473,17.372093 Z M11.3582418,21.1395349 C10.7252747,21.7674419 9.67032967,21.7674419 9.03736264,21.1395349 C8.4043956,20.5116279 8.4043956,19.4651163 9.03736264,18.8372093 C9.35384615,18.5232558 9.77582418,18.3488372 10.1978022,18.3488372 C10.6197802,18.3488372 11.0417582,18.5232558 11.3582418,18.8372093 C11.9912088,19.4651163 11.9912088,20.5116279 11.3582418,21.1395349 Z" id="Shape"></path>
                        <path d="M15.2263736,16.744186 C16.210989,16.744186 16.9846154,15.9767442 16.9846154,15 C16.9846154,14.0232558 16.210989,13.255814 15.2263736,13.255814 C14.2417582,13.255814 13.4681319,14.0232558 13.4681319,15 C13.4681319,15.9767442 14.2417582,16.744186 15.2263736,16.744186 Z M15.2263736,14.6511628 C15.4373626,14.6511628 15.578022,14.7906977 15.578022,15 C15.578022,15.2093023 15.4373626,15.3488372 15.2263736,15.3488372 C15.0153846,15.3488372 14.8747253,15.2093023 14.8747253,15 C14.8747253,14.7906977 15.0153846,14.6511628 15.2263736,14.6511628 Z" id="Shape"></path>
                    </g>
                </g>
            </g>
        </g>
    </g>
</svg>