<?xml version="1.0" encoding="UTF-8"?>
<svg width="18px" height="18px" viewBox="0 0 18 18" version="1.1" xmlns="http://www.w3.org/2000/svg" xmlns:xlink="http://www.w3.org/1999/xlink">
    <!-- Generator: Sketch 49.3 (51167) - http://www.bohemiancoding.com/sketch -->
    <title>searchicon</title>
    <desc>Created with Sketch.</desc>
    <defs></defs>
    <g id="Page-1" stroke="none" stroke-width="1" fill="none" fill-rule="evenodd">
        <g id="Artboard" transform="translate(-148.000000, -154.000000)" fill="#2586FA" fill-rule="nonzero">
            <path d="M163.392097,161.708207 C163.392097,157.452888 159.93921,154 155.683891,154 C151.428571,154 148,157.452888 148,161.708207 C148,165.963526 151.452888,169.416413 155.708207,169.416413 C157.653495,169.416413 159.428571,168.68693 160.790274,167.495441 L164.43769,171.142857 L165.118541,170.462006 L161.471125,166.81459 C162.662614,165.428571 163.392097,163.653495 163.392097,161.708207 Z M155.708207,168.419453 C151.987842,168.419453 148.972644,165.404255 148.972644,161.683891 C148.972644,157.963526 151.987842,154.948328 155.708207,154.948328 C159.428571,154.948328 162.443769,157.963526 162.443769,161.683891 C162.419453,165.404255 159.404255,168.419453 155.708207,168.419453 Z" id="searchicon"></path>
        </g>
    </g>
</svg>